<svg xmlns="http://www.w3.org/2000/svg" width="29" height="28" viewBox="0 0 29 28" fill="none">
<path d="M7.27299 17.9645L7.36158 17.6538L7.19669 17.376C6.25822 15.795 5.92928 13.9256 6.27165 12.1192C6.61401 10.3127 7.60412 8.69335 9.05603 7.56528C10.5079 6.43721 12.3217 5.87802 14.1568 5.99274C15.9918 6.10746 17.7219 6.88818 19.022 8.18829C20.3221 9.4884 21.1028 11.2184 21.2175 13.0535C21.3322 14.8885 20.7731 16.7023 19.645 18.1542C18.5169 19.6061 16.8976 20.5963 15.0911 20.9386C13.2846 21.281 11.4153 20.952 9.83422 20.0136L9.55642 19.8487L9.24575 19.9373L6.4861 20.7242L7.27299 17.9645ZM6.39875 20.8133L6.39813 20.8157L6.39875 20.8133Z" stroke="#A8ADB4" stroke-width="1.5"/>
</svg>