<svg xmlns="http://www.w3.org/2000/svg" width="22" height="22" viewBox="0 0 22 22" fill="none">
<path d="M3.90179 15.2111C2.87818 13.4841 2.52013 11.4429 2.89487 9.47063C3.26961 7.49836 4.35136 5.73069 5.93704 4.49947C7.52272 3.26825 9.50328 2.65816 11.5069 2.78372C13.5105 2.90929 15.3994 3.76188 16.819 5.18144C18.2385 6.601 19.0911 8.48989 19.2167 10.4935C19.3423 12.4971 18.7322 14.4777 17.501 16.0634C16.2697 17.6491 14.5021 18.7308 12.5298 19.1056C10.5575 19.4803 8.51629 19.1222 6.78929 18.0986L3.93617 18.9064C3.81928 18.9406 3.69534 18.9427 3.57734 18.9126C3.45935 18.8824 3.35165 18.821 3.26553 18.7349C3.17941 18.6488 3.11804 18.5411 3.08786 18.4231C3.05768 18.3051 3.05979 18.1811 3.09398 18.0643L3.90179 15.2111Z" stroke="white" stroke-linecap="round" stroke-linejoin="round"/>
<path d="M9.97596 11C9.97596 10.4344 10.4344 9.97596 11 9.97596C11.5656 9.97596 12.024 10.4344 12.024 11C12.024 11.5656 11.5656 12.024 11 12.024C10.4344 12.024 9.97596 11.5656 9.97596 11Z" fill="white" stroke="white" stroke-width="4.11058"/>
<path d="M5.85096 11C5.85096 10.4344 6.30944 9.97596 6.875 9.97596C7.44056 9.97596 7.89904 10.4344 7.89904 11C7.89904 11.5656 7.44056 12.024 6.875 12.024C6.30944 12.024 5.85096 11.5656 5.85096 11Z" fill="white" stroke="white" stroke-width="4.11058"/>
<path d="M14.101 11C14.101 10.4344 14.5594 9.97596 15.125 9.97596C15.6906 9.97596 16.149 10.4344 16.149 11C16.149 11.5656 15.6906 12.024 15.125 12.024C14.5594 12.024 14.101 11.5656 14.101 11Z" fill="white" stroke="white" stroke-width="4.11058"/>
</svg>