<svg xmlns="http://www.w3.org/2000/svg" width="41" height="41" viewBox="0 0 41 41" fill="none">
<path d="M7.6142 27.8992C5.77814 24.8015 5.13591 21.1401 5.80807 17.6024C6.48024 14.0647 8.42058 10.8941 11.2648 8.68561C14.1091 6.47716 17.6616 5.38283 21.2555 5.60806C24.8494 5.83329 28.2376 7.36259 30.7838 9.90886C33.3301 12.4551 34.8594 15.8433 35.0846 19.4372C35.3099 23.0311 34.2155 26.5836 32.0071 29.4279C29.7986 32.2721 26.628 34.2125 23.0903 34.8846C19.5526 35.5568 15.8912 34.9146 12.7935 33.0785L7.67586 34.5275C7.46618 34.5888 7.24387 34.5926 7.03223 34.5385C6.82059 34.4843 6.6274 34.3742 6.47293 34.2198C6.31846 34.0653 6.20838 33.8721 6.15424 33.6605C6.1001 33.4488 6.1039 33.2265 6.16522 33.0168L7.6142 27.8992Z" stroke="white" stroke-width="2" stroke-linecap="round" stroke-linejoin="round"/>
<path d="M20.1407 20.3459C20.1407 20.2323 20.2327 20.1403 20.3462 20.1403C20.4597 20.1403 20.5517 20.2323 20.5517 20.3459C20.5517 20.4594 20.4597 20.5514 20.3462 20.5514C20.2327 20.5514 20.1407 20.4594 20.1407 20.3459Z" fill="white" stroke="white" stroke-width="4.11058"/>
<path d="M12.7416 20.3459C12.7416 20.2323 12.8337 20.1403 12.9472 20.1403C13.0607 20.1403 13.1527 20.2323 13.1527 20.3459C13.1527 20.4594 13.0607 20.5514 12.9472 20.5514C12.8337 20.5514 12.7416 20.4594 12.7416 20.3459Z" fill="white" stroke="white" stroke-width="4.11058"/>
<path d="M27.5397 20.3459C27.5397 20.2323 27.6318 20.1403 27.7453 20.1403C27.8588 20.1403 27.9508 20.2323 27.9508 20.3459C27.9508 20.4594 27.8588 20.5514 27.7453 20.5514C27.6318 20.5514 27.5397 20.4594 27.5397 20.3459Z" fill="white" stroke="white" stroke-width="4.11058"/>
</svg>