<svg xmlns="http://www.w3.org/2000/svg" width="32" height="33" viewBox="0 0 32 33" fill="none">
<path d="M30.4668 6.3252C30.0781 5.86571 29.5338 5.58505 28.934 5.53495L7.80769 3.77094C7.20781 3.72084 6.62457 3.90734 6.16502 4.29599C5.70734 4.68312 5.42709 5.2247 5.37541 5.82159L4.95037 9.80923H3.25321C2.0108 9.80923 1 10.82 1 12.0624V25.2871C1 26.5295 2.0108 27.5403 3.25321 27.5403H24.4531C25.6956 27.5403 26.7064 26.5295 26.7064 25.2871V23.1418L27.4587 23.2046C27.5221 23.2099 27.5852 23.2126 27.6478 23.2126C28.8061 23.2126 29.7935 22.3214 29.8916 21.1467L30.992 7.96793C31.0421 7.36811 30.8556 6.78475 30.4668 6.3252ZM3.25321 10.9811H24.4531C25.0494 10.9811 25.5345 11.4662 25.5345 12.0624V13.2675H2.17187V12.0624C2.17187 11.4662 2.65697 10.9811 3.25321 10.9811ZM2.17187 14.4393H25.5345V16.8703H2.17187V14.4393ZM24.4531 26.3685H3.25321C2.65697 26.3685 2.17187 25.8834 2.17187 25.2871V18.0422H25.5345V25.2871C25.5345 25.8834 25.0494 26.3685 24.4531 26.3685ZM29.8242 7.87037L28.7237 21.0492C28.6741 21.6434 28.1502 22.0866 27.5562 22.0368L26.7064 21.9659V12.0624C26.7064 10.82 25.6956 9.80923 24.4531 9.80923H6.12892L6.54136 5.93972C6.54183 5.93526 6.54224 5.93087 6.54259 5.92636C6.59222 5.33216 7.11581 4.88896 7.71019 4.93876L28.8365 6.70278C29.1244 6.7268 29.3857 6.86151 29.5722 7.08206C29.7587 7.3026 29.8482 7.5825 29.8242 7.87037Z" fill="#E23065"/>
<path d="M23.0824 19.7842H17.4432C17.1196 19.7842 16.8572 20.0465 16.8572 20.3701V24.0492C16.8572 24.3728 17.1196 24.6351 17.4432 24.6351H23.0824C23.406 24.6351 23.6683 24.3728 23.6683 24.0492V20.3701C23.6683 20.0465 23.406 19.7842 23.0824 19.7842ZM22.4964 23.4632H18.0291V20.9561H22.4964V23.4632Z" fill="#E23065"/>
</svg>