<svg xmlns="http://www.w3.org/2000/svg" width="32" height="33" viewBox="0 0 32 33" fill="none">
<path d="M29.1578 14.5856C29.0406 11.2462 27.6883 8.12341 25.3137 5.74882C22.8248 3.25942 19.5169 1.88892 16 1.88892C8.8968 1.88892 3.09283 7.54268 2.84265 14.5856C1.75868 15.0673 1 16.1522 1 17.4132V20.8871C1 22.5929 2.38773 23.9811 4.09405 23.9811C5.19811 23.9811 6.09599 23.0832 6.09599 21.9792V16.3206C6.09599 15.284 5.30095 14.4387 4.29017 14.3383C4.6633 8.20234 9.77125 3.324 16 3.324C19.1342 3.324 22.0814 4.54574 24.2996 6.7639C26.3364 8.80077 27.5285 11.4557 27.7079 14.3388C26.6981 14.4402 25.9045 15.285 25.9045 16.3206V21.9787C25.9045 23.0239 26.712 23.8744 27.7347 23.9629V25.3928C27.7347 27.0029 26.4245 28.3127 24.8143 28.3127H22.6516C22.5454 28.0094 22.379 27.7291 22.1455 27.4966C21.7365 27.0857 21.1912 26.8594 20.6105 26.8594H18.3813C18.0613 26.8594 17.7542 26.9273 17.4729 27.0584C16.7056 27.411 16.21 28.185 16.21 29.0302C16.21 29.611 16.4363 30.1563 16.8462 30.5643C17.2562 30.9752 17.8015 31.2015 18.3813 31.2015H20.6105C21.5347 31.2015 22.3493 30.604 22.6531 29.7478H24.8143C27.2162 29.7478 29.1698 27.7941 29.1698 25.3928V23.7075C30.2471 23.2229 31 22.1418 31 20.8861V17.4122C31 16.1522 30.2413 15.0673 29.1578 14.5856ZM4.66043 16.3206V21.9787C4.66043 22.2911 4.40642 22.5455 4.09357 22.5455C3.17894 22.5455 2.43461 21.8012 2.43461 20.8866V17.4127C2.43461 16.4976 3.17894 15.7538 4.09357 15.7538C4.40642 15.7538 4.66043 16.0083 4.66043 16.3206ZM21.3304 29.1843C21.2591 29.522 20.9558 29.7674 20.61 29.7674H18.3808C18.1847 29.7674 18.0005 29.6908 17.8599 29.5502C17.7211 29.412 17.6446 29.2273 17.6446 29.0312C17.6446 28.7446 17.8125 28.483 18.0756 28.362C18.1694 28.3179 18.2722 28.2955 18.3808 28.2955H20.61C20.8061 28.2955 20.9903 28.3715 21.1304 28.5122C21.2692 28.6504 21.3457 28.8351 21.3457 29.0312C21.3462 29.0838 21.3404 29.1364 21.3304 29.1843ZM29.5649 20.8866C29.5649 21.8012 28.8206 22.5455 27.906 22.5455C27.5936 22.5455 27.3391 22.2915 27.3391 21.9787V16.3206C27.3391 16.0083 27.5931 15.7538 27.906 15.7538C28.8206 15.7538 29.5649 16.4981 29.5649 17.4127V20.8866Z" fill="#E23065"/>
<path d="M20.6463 21.1339C22.323 21.1339 23.6868 19.7696 23.6868 18.0934V11.8981C23.6868 11.0878 23.3701 10.3243 22.7951 9.74933C22.2201 9.17434 21.4571 8.85767 20.6463 8.85767H11.3536C9.67698 8.85767 8.31317 10.2215 8.31317 11.8981V18.0934C8.31317 19.7701 9.67698 21.1339 11.3536 21.1339H11.4106V22.7393C11.4106 23.3516 11.7756 23.895 12.34 24.1241C12.5223 24.1973 12.7117 24.2337 12.8992 24.2337C13.2901 24.2337 13.6708 24.0787 13.9497 23.7902L16.6204 21.1339H20.6463ZM15.8192 19.9074L12.9289 22.7818C12.916 22.7952 12.9064 22.8053 12.8791 22.7933C12.8461 22.7799 12.8461 22.7584 12.8461 22.7393V20.4163C12.8461 20.0202 12.5251 19.6988 12.1286 19.6988H11.3541C10.4687 19.6988 9.74874 18.9784 9.74874 18.0934V11.8981C9.74874 11.0127 10.4687 10.2928 11.3541 10.2928H20.6468C21.0744 10.2928 21.4767 10.4602 21.781 10.7639C22.0852 11.0682 22.2522 11.471 22.2522 11.8981V18.0934C22.2522 18.9789 21.5318 19.6988 20.6468 19.6988H16.3253C16.1353 19.6988 15.9536 19.7739 15.8192 19.9074Z" fill="#E23065"/>
<path d="M12.5142 14.0515C11.9306 14.0515 11.4556 14.527 11.4556 15.1101C11.4556 15.6933 11.9311 16.1687 12.5142 16.1687C13.0983 16.1687 13.5738 15.6933 13.5738 15.1101C13.5738 14.527 13.0987 14.0515 12.5142 14.0515Z" fill="#E23065"/>
<path d="M15.9995 14.0515C15.4159 14.0515 14.9409 14.527 14.9409 15.1101C14.9409 15.6933 15.4164 16.1687 15.9995 16.1687C16.5841 16.1687 17.0591 15.6933 17.0591 15.1101C17.0591 14.527 16.5841 14.0515 15.9995 14.0515Z" fill="#E23065"/>
<path d="M19.4849 14.0515C18.9013 14.0515 18.4263 14.527 18.4263 15.1101C18.4263 15.6933 18.9018 16.1687 19.4849 16.1687C20.069 16.1687 20.5445 15.6933 20.5445 15.1101C20.5445 14.527 20.069 14.0515 19.4849 14.0515Z" fill="#E23065"/>
</svg>