<svg xmlns="http://www.w3.org/2000/svg" width="32" height="33" viewBox="0 0 32 33" fill="none">
<path d="M29.8378 16.7532L27.4584 13.5242L27.4858 9.51285C27.4885 9.14754 27.2525 8.82319 26.9041 8.71287L23.08 7.50185L20.7477 4.23783C20.5347 3.93952 20.1523 3.81651 19.8057 3.93181L16 5.20217L12.1943 3.93148C11.8473 3.81612 11.465 3.93914 11.2523 4.2375L8.92029 7.5012L5.09596 8.71287C4.7476 8.82287 4.51164 9.14754 4.51427 9.51253L4.54162 13.5239L2.16224 16.7529C1.94592 17.0469 1.94592 17.4479 2.16224 17.7419L4.54156 20.9709L4.51421 24.9822C4.51153 25.3476 4.74755 25.6719 5.0959 25.7822L8.91991 26.9932L11.2522 30.2573C11.4119 30.4806 11.6666 30.6063 11.9303 30.6063C12.0186 30.6063 12.1072 30.5923 12.1943 30.5633L15.9999 29.2929L19.8056 30.5636C20.1523 30.6793 20.5349 30.5556 20.7476 30.2576L23.0797 26.9939L26.9041 25.7823C27.2525 25.6723 27.4884 25.3476 27.4858 24.9826L27.4584 20.971L29.8378 17.7419C30.0541 17.4482 30.0541 17.0469 29.8378 16.7532ZM25.9521 20.2053C25.8454 20.3503 25.7884 20.5256 25.7897 20.7053L25.8147 24.379L22.3113 25.4887C22.1393 25.543 21.9897 25.6517 21.885 25.7987L19.7497 28.7877L16.264 27.624C16.0927 27.5667 15.9073 27.5667 15.736 27.624L12.2503 28.7877L10.1146 25.7984C10.0099 25.6517 9.85991 25.5427 9.68822 25.488L6.18517 24.3787L6.21017 20.705C6.21148 20.5253 6.15449 20.35 6.04783 20.2049L3.86826 17.2475L6.04761 14.2899C6.15427 14.1449 6.21126 13.9695 6.20995 13.7898L6.18495 10.1161L9.68833 9.00648C9.86034 8.95217 10.01 8.84349 10.1147 8.69647L12.25 5.70745L15.7357 6.8711C15.907 6.92842 16.0924 6.92842 16.2637 6.8711L19.7494 5.70745L21.8851 8.69679C21.9898 8.84349 22.1398 8.95244 22.3115 9.00714L25.8145 10.1165L25.7895 13.7902C25.7882 13.9698 25.8452 14.1451 25.9518 14.2902L28.1319 17.2475L25.9521 20.2053Z" fill="#E23065"/>
<path d="M20.0984 13.5334L14.4377 19.1944L11.902 16.6587C11.5763 16.3331 11.049 16.3331 10.7236 16.6587C10.3983 16.9844 10.398 17.5117 10.7236 17.8371L13.8487 20.9621C14.0113 21.1248 14.2246 21.2061 14.438 21.2061C14.6514 21.2061 14.8644 21.1248 15.0274 20.9621L21.2774 14.7121C21.603 14.3864 21.603 13.8591 21.2774 13.5337C20.9517 13.2083 20.4237 13.2081 20.0984 13.5334Z" fill="#E23065"/>
</svg>