<svg xmlns="http://www.w3.org/2000/svg" width="32" height="33" viewBox="0 0 32 33" fill="none">
<path d="M16 2.88892C8.28041 2.88892 2 9.16932 2 16.8889C2 24.6085 8.28041 30.8889 16 30.8889C23.7196 30.8889 30 24.6085 30 16.8889C30 9.16932 23.7197 2.88892 16 2.88892ZM16 29.3754C12.5703 29.3754 9.45936 27.9852 7.2005 25.7391C6.29844 24.8422 5.53268 23.8084 4.93644 22.6723C4.02832 20.9423 3.51353 18.9747 3.51353 16.8889C3.51353 10.0039 9.11493 4.40245 16 4.40245C19.2657 4.40245 22.2421 5.66322 24.4695 7.72295C25.6243 8.79075 26.5779 10.0731 27.2655 11.5064C28.0478 13.1371 28.4865 14.9628 28.4865 16.8889C28.4865 23.774 22.8851 29.3754 16 29.3754Z" fill="#E23065"/>
<path d="M11.428 15.2807C12.2639 15.2807 12.9415 14.6031 12.9415 13.7672C12.9415 12.9313 12.2639 12.2537 11.428 12.2537C10.5921 12.2537 9.91446 12.9313 9.91446 13.7672C9.91446 14.6031 10.5921 15.2807 11.428 15.2807Z" fill="#E23065"/>
<path d="M20.793 15.2807C21.6289 15.2807 22.3065 14.6031 22.3065 13.7672C22.3065 12.9313 21.6289 12.2537 20.793 12.2537C19.9571 12.2537 19.2794 12.9313 19.2794 13.7672C19.2794 14.6031 19.9571 15.2807 20.793 15.2807Z" fill="#E23065"/>
<path d="M15.9732 24.6455C18.9014 24.6455 21.7075 23.1481 23.3143 20.6618L22.043 19.8403C20.5676 22.1234 17.8688 23.3975 15.1665 23.0857C13.0606 22.8429 11.1132 21.6296 9.95694 19.8403L8.68576 20.6618C10.0848 22.827 12.4427 24.2951 14.993 24.5893C15.3204 24.6271 15.6474 24.6455 15.9732 24.6455Z" fill="#E23065"/>
</svg>