<svg xmlns="http://www.w3.org/2000/svg" width="120" height="24" viewBox="0 0 120 24" fill="none">
<path fill-rule="evenodd" clip-rule="evenodd" d="M33.6712 15.3718C33.7553 17.4039 33.4306 19.4258 32.7218 21.3313L32.7187 21.3333L32.7157 21.3352C31.9479 22.9569 30.2501 24 28.3782 24H5.32054C3.44317 24 1.73943 22.957 0.962726 21.3333C0.253498 19.4274 -0.0710671 17.4044 0.0129964 15.3718C0.12613 12.6364 0.976188 9.97421 2.48186 7.64003C3.98753 5.30584 6.09845 3.37771 8.6127 2.04007C11.127 0.702418 13.9604 0 16.8421 0C19.7238 0 22.5573 0.702417 25.0715 2.04006C27.5858 3.37771 29.6967 5.30584 31.2024 7.64002C32.708 9.97421 33.5581 12.6364 33.6712 15.3718ZM3.94967 21.1332C4.00351 21.2552 4.12999 21.3333 4.26928 21.3333H9.54217C9.72253 21.3333 9.87255 21.2033 9.89846 21.0337C9.93278 20.8091 9.97889 20.5882 10.0362 20.3715C10.08 20.2055 9.99375 20.0312 9.82736 19.9658L3.46379 17.4629C3.21949 17.3669 2.95647 17.5522 2.99233 17.8011C3.15713 18.9447 3.47847 20.0651 3.94967 21.1332ZM24.1435 21.3333C23.9631 21.3333 23.8131 21.2033 23.7872 21.0337C23.7483 20.7794 23.6943 20.5297 23.6261 20.2856C23.5796 20.1189 23.6651 19.9423 23.8325 19.8758L30.2374 17.3327C30.4805 17.2362 30.7435 17.419 30.7105 17.6672C30.5519 18.8573 30.2241 20.0234 29.7346 21.1332C29.6807 21.2552 29.5542 21.3333 29.4149 21.3333H24.1435ZM2.87092 15.5577C2.86613 15.6945 2.95244 15.8187 3.0855 15.8711L10.3639 18.7337C10.5303 18.7992 10.7211 18.7338 10.8135 18.5869C10.9368 18.3907 11.0705 18.201 11.2137 18.0185C11.3215 17.8812 11.3122 17.6886 11.1847 17.5675L4.36958 11.0931C4.19426 10.9266 3.89767 10.9808 3.80806 11.2004C3.25226 12.5627 2.93477 14.0079 2.87395 15.4786C2.87286 15.505 2.87185 15.5314 2.87092 15.5577ZM4.79406 9.26536C4.71423 9.39424 4.73819 9.55768 4.84949 9.66341L12.1771 16.6247C12.3046 16.7458 12.5074 16.7546 12.6519 16.6523C12.8429 16.5169 13.0414 16.3907 13.2467 16.274C13.4012 16.1862 13.47 16.0051 13.4011 15.847L8.92619 5.58382C8.83953 5.38507 8.58024 5.3151 8.40056 5.44604C7.02487 6.44852 5.80728 7.69052 4.9231 9.06122C4.87942 9.12894 4.8364 9.19699 4.79406 9.26536ZM10.1754 4.33333C10.0473 4.40153 9.99476 4.55041 10.051 4.67936L14.6976 15.3363C14.7665 15.4944 14.9501 15.5763 15.1247 15.5346C15.3543 15.4797 15.5884 15.4356 15.8263 15.4028C16.0048 15.3782 16.1418 15.2356 16.1418 15.0643V3.0833C16.1418 2.89336 15.9748 2.74141 15.7754 2.75456C13.7938 2.88524 11.9481 3.39023 10.1754 4.33333ZM17.9117 2.75475C17.7122 2.74156 17.5453 2.89352 17.5453 3.08349V15.0645C17.5453 15.2358 17.6822 15.3783 17.8606 15.4029C18.0981 15.4357 18.3317 15.4798 18.5608 15.5346C18.7355 15.5763 18.919 15.4944 18.988 15.3363L23.6338 4.681C23.6903 4.55143 23.6376 4.40186 23.5088 4.33333C21.737 3.39068 19.8922 2.88572 17.9117 2.75475ZM25.2847 5.44677C25.105 5.31581 24.8457 5.38577 24.759 5.58454L20.2845 15.8469C20.2156 16.005 20.2843 16.1862 20.4389 16.274C20.6441 16.3905 20.8425 16.5168 21.0334 16.652C21.1779 16.7544 21.3807 16.7455 21.5081 16.6244L28.835 9.66385C28.9463 9.55812 28.9703 9.39469 28.8905 9.26582C28.848 9.19729 28.8049 9.12909 28.7611 9.06122C27.8772 7.69085 26.6599 6.44912 25.2847 5.44677ZM29.8764 11.2009C29.7868 10.9813 29.4902 10.9271 29.3149 11.0936L22.5007 17.5671C22.3732 17.6882 22.3639 17.8808 22.4717 18.0181C22.5964 18.1771 22.7139 18.3415 22.8237 18.5109C22.9174 18.6555 23.1069 18.7188 23.2719 18.6533L30.6424 15.7267C30.7473 15.6851 30.8147 15.5865 30.8103 15.4786C30.7495 14.0081 30.4321 12.563 29.8764 11.2009Z" fill="#131314"/>
<path d="M48.1089 21.9683C44.517 21.9683 42.1053 19.9225 42.1053 16.9253V16.8936C42.1053 13.9915 44.5341 12.2153 48.793 11.9774L53.6848 11.7078V10.455C53.6848 8.61543 52.402 7.50534 50.1101 7.50534C47.972 7.50534 46.655 8.44099 46.3471 9.7731L46.3129 9.91583H42.8236L42.8408 9.74138C43.0973 6.871 45.7827 4.66667 50.2127 4.66667C54.6085 4.66667 57.3965 6.82342 57.3965 10.1696V21.667H53.6848V19.0345H53.6164C52.5731 20.8265 50.4863 21.9683 48.1089 21.9683ZM45.834 16.846C45.834 18.305 47.1339 19.2248 49.118 19.2248C51.7178 19.2248 53.6848 17.5913 53.6848 15.4187V14.1183L49.289 14.3721C47.0655 14.4989 45.834 15.4029 45.834 16.8143V16.846Z" fill="#131314"/>
<path d="M66.7614 22C62.8103 22 60.5525 19.6371 60.5525 15.7993V4.98384H64.247V15.1333C64.247 17.6548 65.5128 19.0503 68.0784 19.0503C70.6782 19.0503 72.3545 17.3217 72.3545 14.721V4.98384H76.0661V21.667H72.3545V19.1613H72.2689C71.3282 20.8423 69.498 22 66.7614 22Z" fill="#131314"/>
<path d="M79.3761 21.667V4.98384H83.0706V7.83837H83.1561C83.7377 5.88777 85.2428 4.66667 87.2953 4.66667C87.8256 4.66667 88.2874 4.74596 88.5782 4.79353V7.98109C88.2874 7.87008 87.6374 7.79079 86.919 7.79079C84.5416 7.79079 83.0706 9.23391 83.0706 11.7237V21.667H79.3761Z" fill="#131314"/>
<path d="M95.4287 21.9683C91.8368 21.9683 89.4251 19.9225 89.4251 16.9253V16.8936C89.4251 13.9915 91.854 12.2153 96.1129 11.9774L101.005 11.7078V10.455C101.005 8.61543 99.7219 7.50534 97.4299 7.50534C95.2919 7.50534 93.9749 8.44099 93.667 9.7731L93.6328 9.91583H90.1435L90.1606 9.74138C90.4172 6.871 93.1026 4.66667 97.5326 4.66667C101.928 4.66667 104.716 6.82342 104.716 10.1696V21.667H101.005V19.0345H100.936C99.8929 20.8265 97.8062 21.9683 95.4287 21.9683ZM93.1539 16.846C93.1539 18.305 94.4538 19.2248 96.4379 19.2248C99.0377 19.2248 101.005 17.5913 101.005 15.4187V14.1183L96.6089 14.3721C94.3854 14.4989 93.1539 15.4029 93.1539 16.8143V16.846Z" fill="#131314"/>
<path d="M108.368 21.667L116.228 7.61984V7.54942H106.938V4.73296H120V7.58463L112.38 21.667H108.368Z" fill="#131314"/>
</svg>