<svg xmlns="http://www.w3.org/2000/svg" width="80" height="18" viewBox="0 0 80 18" fill="none">
<path fill-rule="evenodd" clip-rule="evenodd" d="M22.4475 11.3884C22.5035 12.8277 22.2871 14.26 21.8145 15.6096L21.8125 15.6111L21.8105 15.6124C21.2986 16.7611 20.1667 17.5 18.9188 17.5H3.54703C2.29544 17.5 1.15962 16.7612 0.641817 15.6111C0.168999 14.2611 -0.0473781 12.8281 0.00866429 11.3884C0.0840864 9.45076 0.650792 7.56506 1.65457 5.91169C2.65835 4.25831 4.06563 2.89255 5.7418 1.94505C7.41797 0.997546 9.30696 0.5 11.2281 0.5C13.1492 0.5 15.0382 0.997545 16.7144 1.94504C18.3905 2.89254 19.7978 4.2583 20.8016 5.91168C21.8054 7.56506 22.3721 9.45075 22.4475 11.3884ZM2.63311 15.4693C2.66901 15.5558 2.75333 15.6111 2.84619 15.6111H6.36145C6.48168 15.6111 6.5817 15.519 6.59897 15.3989C6.62186 15.2398 6.65259 15.0833 6.69078 14.9298C6.72001 14.8122 6.6625 14.6888 6.55158 14.6424L2.30919 12.8696C2.14632 12.8015 1.97098 12.9328 1.99489 13.1091C2.10475 13.9192 2.31898 14.7128 2.63311 15.4693ZM16.0957 15.6111C15.9754 15.6111 15.8754 15.519 15.8581 15.3989C15.8322 15.2187 15.7962 15.0419 15.7508 14.8689C15.7197 14.7509 15.7767 14.6258 15.8884 14.5787L20.1583 12.7773C20.3203 12.7089 20.4957 12.8384 20.4736 13.0143C20.368 13.8573 20.1494 14.6833 19.823 15.4693C19.7871 15.5558 19.7028 15.6111 19.61 15.6111H16.0957ZM1.91395 11.5201C1.91075 11.6169 1.96829 11.7049 2.057 11.742L6.90927 13.7697C7.02023 13.8161 7.14741 13.7698 7.20899 13.6657C7.29121 13.5267 7.38031 13.3924 7.47581 13.2631C7.54766 13.1658 7.54143 13.0294 7.45645 12.9436L2.91306 8.35763C2.79617 8.23965 2.59845 8.27807 2.53871 8.43364C2.16817 9.39855 1.95652 10.4222 1.91596 11.464C1.91524 11.4827 1.91457 11.5014 1.91395 11.5201ZM3.19604 7.06297C3.14282 7.15425 3.15879 7.27002 3.23299 7.34492L8.11808 12.2758C8.20306 12.3616 8.33825 12.3679 8.43459 12.2953C8.56192 12.1995 8.69425 12.11 8.83111 12.0274C8.93415 11.9653 8.98 11.8369 8.93405 11.725L5.9508 4.45521C5.89302 4.31442 5.72016 4.26486 5.60038 4.35761C4.68325 5.0677 3.87152 5.94745 3.28207 6.91837C3.25295 6.96633 3.22427 7.01453 3.19604 7.06297ZM6.78363 3.56944C6.69817 3.61775 6.66317 3.72321 6.70065 3.81455L9.79838 11.3632C9.84433 11.4752 9.9667 11.5332 10.0832 11.5037C10.2362 11.4648 10.3923 11.4335 10.5509 11.4103C10.6699 11.3929 10.7612 11.2919 10.7612 11.1705V2.68401C10.7612 2.54946 10.6499 2.44183 10.5169 2.45115C9.19587 2.54371 7.96541 2.90141 6.78363 3.56944ZM11.9411 2.45128C11.8081 2.44194 11.6968 2.54958 11.6968 2.68414V11.1707C11.6968 11.292 11.7881 11.393 11.9071 11.4104C12.0654 11.4336 12.2211 11.4648 12.3739 11.5036C12.4903 11.5332 12.6127 11.4752 12.6586 11.3632L15.7559 3.81571C15.7935 3.72393 15.7584 3.61798 15.6725 3.56944C14.4913 2.90173 13.2615 2.54405 11.9411 2.45128ZM16.8564 4.35813C16.7367 4.26536 16.5638 4.31492 16.506 4.45571L13.523 11.7249C13.477 11.8369 13.5229 11.9652 13.6259 12.0274C13.7627 12.11 13.895 12.1994 14.0223 12.2952C14.1186 12.3677 14.2538 12.3614 14.3388 12.2756L19.2233 7.34523C19.2975 7.27034 19.3135 7.15457 19.2603 7.06329C19.232 7.01475 19.2033 6.96644 19.1741 6.91836C18.5848 5.94769 17.7733 5.06813 16.8564 4.35813ZM19.9176 8.43401C19.8579 8.27843 19.6601 8.24 19.5432 8.35798L15.0005 12.9434C14.9155 13.0291 14.9092 13.1656 14.9811 13.2628C15.0643 13.3754 15.1426 13.4919 15.2158 13.6119C15.2782 13.7143 15.4046 13.7591 15.5146 13.7128L20.4283 11.6398C20.4982 11.6103 20.5432 11.5405 20.5402 11.464C20.4996 10.4224 20.288 9.39881 19.9176 8.43401Z" fill="white"/>
<path d="M32.0726 16.0609C29.678 16.0609 28.0702 14.6118 28.0702 12.4887V12.4663C28.0702 10.4106 29.6894 9.15251 32.5287 8.98401L35.7899 8.79305V7.90564C35.7899 6.6026 34.9347 5.81628 33.4067 5.81628C31.9813 5.81628 31.1033 6.47903 30.8981 7.42261L30.8753 7.52371H28.5491L28.5605 7.40015C28.7315 5.36696 30.5218 3.80556 33.4751 3.80556C36.4056 3.80556 38.2643 5.33326 38.2643 7.70344V15.8474H35.7899V13.9827H35.7443C35.0487 15.2521 33.6576 16.0609 32.0726 16.0609ZM30.556 12.4326C30.556 13.466 31.4226 14.1175 32.7453 14.1175C34.4786 14.1175 35.7899 12.9605 35.7899 11.4216V10.5005L32.8594 10.6802C31.377 10.7701 30.556 11.4104 30.556 12.4101V12.4326Z" fill="white"/>
<path d="M44.5076 16.0833C41.8735 16.0833 40.3684 14.4096 40.3684 11.6912V4.03022H42.8314V11.2194C42.8314 13.0055 43.6752 13.994 45.3856 13.994C47.1188 13.994 48.2363 12.7696 48.2363 10.9273V4.03022H50.7107V15.8474H48.2363V14.0726H48.1793C47.5521 15.2633 46.332 16.0833 44.5076 16.0833Z" fill="white"/>
<path d="M52.9174 15.8474V4.03022H55.3804V6.05218H55.4374C55.8251 4.6705 56.8286 3.80556 58.1969 3.80556C58.5504 3.80556 58.8583 3.86172 59.0521 3.89542V6.15327C58.8583 6.07464 58.4249 6.01848 57.946 6.01848C56.361 6.01848 55.3804 7.04069 55.3804 8.80429V15.8474H52.9174Z" fill="white"/>
<path d="M63.6192 16.0609C61.2246 16.0609 59.6168 14.6118 59.6168 12.4887V12.4663C59.6168 10.4106 61.236 9.15251 64.0753 8.98401L67.3365 8.79305V7.90564C67.3365 6.6026 66.4813 5.81628 64.9533 5.81628C63.5279 5.81628 62.6499 6.47903 62.4447 7.42261L62.4219 7.52371H60.0957L60.1071 7.40015C60.2781 5.36696 62.0684 3.80556 65.0217 3.80556C67.9522 3.80556 69.8109 5.33326 69.8109 7.70344V15.8474H67.3365V13.9827H67.2909C66.5953 15.2521 65.2042 16.0609 63.6192 16.0609ZM62.1026 12.4326C62.1026 13.466 62.9692 14.1175 64.2919 14.1175C66.0252 14.1175 67.3365 12.9605 67.3365 11.4216V10.5005L64.406 10.6802C62.9236 10.7701 62.1026 11.4104 62.1026 12.4101V12.4326Z" fill="white"/>
<path d="M72.2454 15.8474L77.4855 5.89738V5.84751H71.2919V3.85251H80V5.87245L74.9203 15.8474H72.2454Z" fill="white"/>
</svg>