<svg xmlns="http://www.w3.org/2000/svg" width="29" height="28" viewBox="0 0 29 28" fill="none">
<path d="M8.40255 24C8.1739 24 7.94684 23.9287 7.75306 23.7885C7.39209 23.5269 7.22347 23.0773 7.32171 22.6434L8.66432 16.7292L4.11104 12.736C3.77634 12.4439 3.64848 11.9811 3.78589 11.5578C3.92331 11.1352 4.29717 10.836 4.73983 10.7951L10.7644 10.2481L13.1463 4.67401C13.3219 4.26448 13.7219 4 14.1663 4C14.6107 4 15.0107 4.26448 15.1863 4.67306L17.5682 10.2481L23.5918 10.7951C24.0354 10.835 24.4093 11.1352 24.5467 11.5578C24.6841 11.9804 24.557 12.4439 24.2223 12.736L19.6691 16.7284L21.0117 22.6424C21.1101 23.0773 20.9413 23.5269 20.5805 23.7877C20.2205 24.0486 19.7404 24.0686 19.3613 23.8408L14.1663 20.7363L8.97131 23.8425C8.79568 23.9468 8.59999 24 8.40255 24ZM14.1663 19.3989C14.3637 19.3989 14.5593 19.452 14.7351 19.5563L19.6378 22.4886L18.3707 16.9065C18.2803 16.5093 18.4151 16.0945 18.7221 15.8257L23.0214 12.0552L17.3333 11.5387C16.9238 11.5012 16.5716 11.2438 16.4116 10.8664L14.1663 5.60613L11.9183 10.8672C11.76 11.242 11.4078 11.4995 10.9992 11.5369L5.31034 12.0534L9.6095 15.824C9.91745 16.0935 10.0522 16.5075 9.96092 16.9058L8.69473 22.4877L13.5975 19.5563C13.7732 19.452 13.9688 19.3989 14.1663 19.3989ZM10.7184 10.3559C10.7184 10.3559 10.7184 10.3569 10.7174 10.3577L10.7184 10.3559ZM17.6125 10.3534L17.6134 10.3551C17.6134 10.3542 17.6134 10.3542 17.6125 10.3534Z" fill="#A8ADB4"/>
</svg>