<svg xmlns="http://www.w3.org/2000/svg" width="29" height="28" viewBox="0 0 29 28" fill="none">
<path d="M5.35156 8.05322V15.3989" stroke="#A8ADB4" stroke-width="1.5" stroke-linecap="round" stroke-linejoin="round"/>
<path d="M7.39014 22.01C8.12513 20.8827 9.12976 19.9565 10.313 19.3154C11.4963 18.6744 12.8208 18.3386 14.1665 18.3386C15.5123 18.3386 16.8368 18.6744 18.02 19.3154C19.2033 19.9565 20.2079 20.8827 20.9429 22.01" stroke="#A8ADB4" stroke-width="1.5" stroke-linecap="round" stroke-linejoin="round"/>
<path d="M22.9812 8.05326L14.1664 10.9915L5.35156 8.05326L14.1664 5.11499L22.9812 8.05326Z" stroke="#A8ADB4" stroke-width="1.5" stroke-linecap="round" stroke-linejoin="round"/>
<path d="M17.9586 9.72437C18.6324 10.4602 19.0776 11.3762 19.2399 12.3606C19.4022 13.3451 19.2745 14.3555 18.8726 15.2687C18.4706 16.1819 17.8116 16.9584 16.976 17.5035C16.1403 18.0487 15.1641 18.339 14.1664 18.339C13.1687 18.339 12.1925 18.0487 11.3568 17.5035C10.5212 16.9584 9.86221 16.1819 9.46022 15.2687C9.05824 14.3555 8.93061 13.3451 9.09289 12.3606C9.25517 11.3762 9.70036 10.4602 10.3742 9.72437" stroke="#A8ADB4" stroke-width="1.5" stroke-linecap="round" stroke-linejoin="round"/>
</svg>